<?xml version="1.0" encoding="UTF-8"?>
<!DOCTYPE svg PUBLIC "-//W3C//DTD SVG 1.1//EN" "http://www.w3.org/Graphics/SVG/1.1/DTD/svg11.dtd">
<svg xmlns="http://www.w3.org/2000/svg" version="1.1" viewBox="0 0 73 73" stroke="none">
	<rect width="100%" height="100%" fill="#ffffff"/>
	<path d="M20,20h7v1h-7z M28,20h1v2h-1z M32,20h1v7h-1z M33,20h1v2h-1z M36,20h2v1h-2z M39,20h1v1h-1z M41,20h4v1h-4z M46,20h7v1h-7z M20,21h1v6h-1z M26,21h1v6h-1z M31,21h1v2h-1z M36,21h1v1h-1z M38,21h1v1h-1z M40,21h2v1h-2z M43,21h1v2h-1z M46,21h1v6h-1z M52,21h1v6h-1z M22,22h3v3h-3z M30,22h1v5h-1z M37,22h1v1h-1z M44,22h1v1h-1z M48,22h3v3h-3z M28,23h1v1h-1z M34,23h1v6h-1z M35,23h2v1h-2z M39,23h2v1h-2z M42,23h1v1h-1z M29,24h1v1h-1z M31,24h1v1h-1z M33,24h1v1h-1z M37,24h1v1h-1z M40,24h1v5h-1z M41,24h1v1h-1z M43,24h2v1h-2z M38,25h1v3h-1z M39,25h1v1h-1z M42,25h1v2h-1z M44,25h1v6h-1z M21,26h5v1h-5z M28,26h1v2h-1z M36,26h1v1h-1z M47,26h5v1h-5z M29,27h1v1h-1z M31,27h1v5h-1z M37,27h1v2h-1z M43,27h1v4h-1z M20,28h1v1h-1z M22,28h2v1h-2z M25,28h3v1h-3z M39,28h1v2h-1z M41,28h2v1h-2z M46,28h1v2h-1z M49,28h1v5h-1z M51,28h2v1h-2z M23,29h2v2h-2z M27,29h2v1h-2z M32,29h1v1h-1z M36,29h1v1h-1z M45,29h1v2h-1z M47,29h1v3h-1z M50,29h1v1h-1z M52,29h1v3h-1z M20,30h1v3h-1z M22,30h1v4h-1z M25,30h1v3h-1z M26,30h1v1h-1z M29,30h2v2h-2z M34,30h1v2h-1z M37,30h1v1h-1z M40,30h3v1h-3z M48,30h1v1h-1z M32,31h2v1h-2z M35,31h2v1h-2z M38,31h1v3h-1z M46,31h1v1h-1z M51,31h1v1h-1z M23,32h2v1h-2z M26,32h4v1h-4z M32,32h1v1h-1z M35,32h1v1h-1z M42,32h1v1h-1z M45,32h1v1h-1z M48,32h1v1h-1z M24,33h1v6h-1z M29,33h1v1h-1z M31,33h1v1h-1z M33,33h1v1h-1z M36,33h1v4h-1z M37,33h1v1h-1z M41,33h1v5h-1z M50,33h1v4h-1z M51,33h1v1h-1z M21,34h1v2h-1z M25,34h2v1h-2z M30,34h1v3h-1z M34,34h2v1h-2z M44,34h2v1h-2z M48,34h1v6h-1z M20,35h1v3h-1z M23,35h1v2h-1z M25,35h1v1h-1z M33,35h1v1h-1z M39,35h2v1h-2z M45,35h1v1h-1z M49,35h1v3h-1z M26,36h3v1h-3z M32,36h1v4h-1z M34,36h2v1h-2z M39,36h1v1h-1z M43,36h2v1h-2z M46,36h1v2h-1z M22,37h1v1h-1z M28,37h1v3h-1z M29,37h1v1h-1z M31,37h1v1h-1z M33,37h1v2h-1z M35,37h1v5h-1z M37,37h2v1h-2z M43,37h1v1h-1z M52,37h1v1h-1z M23,38h1v1h-1z M26,38h1v1h-1z M34,38h1v1h-1z M36,38h2v1h-2z M40,38h1v1h-1z M42,38h1v1h-1z M44,38h2v2h-2z M50,38h2v1h-2z M21,39h1v1h-1z M27,39h1v1h-1z M29,39h1v2h-1z M36,39h1v1h-1z M47,39h1v1h-1z M51,39h2v1h-2z M22,40h2v1h-2z M25,40h2v1h-2z M30,40h1v8h-1z M31,40h1v1h-1z M34,40h1v1h-1z M38,40h2v1h-2z M41,40h1v2h-1z M43,40h1v3h-1z M49,40h2v1h-2z M20,41h1v1h-1z M25,41h1v1h-1z M27,41h1v3h-1z M32,41h1v1h-1z M38,41h1v1h-1z M46,41h1v1h-1z M52,41h1v3h-1z M22,42h3v1h-3z M26,42h1v1h-1z M28,42h1v1h-1z M31,42h1v4h-1z M33,42h2v2h-2z M36,42h1v2h-1z M44,42h1v10h-1z M47,42h1v3h-1z M49,42h1v4h-1z M51,42h1v2h-1z M21,43h1v1h-1z M23,43h1v1h-1z M32,43h1v2h-1z M40,43h1v3h-1z M20,44h1v1h-1z M24,44h3v1h-3z M34,44h2v1h-2z M37,44h2v2h-2z M43,44h1v3h-1z M45,44h2v1h-2z M48,44h1v5h-1z M28,45h1v3h-1z M35,45h1v1h-1z M39,45h1v3h-1z M41,45h1v1h-1z M20,46h7v1h-7z M34,46h1v1h-1z M36,46h1v2h-1z M42,46h1v5h-1z M46,46h1v1h-1z M20,47h1v6h-1z M26,47h1v6h-1z M32,47h1v3h-1z M33,47h1v1h-1z M35,47h1v1h-1z M41,47h1v3h-1z M50,47h1v2h-1z M52,47h1v1h-1z M22,48h3v3h-3z M29,48h1v5h-1z M31,48h1v2h-1z M34,48h1v1h-1z M37,48h1v1h-1z M43,48h1v1h-1z M45,48h3v1h-3z M51,48h1v1h-1z M28,49h1v2h-1z M38,49h1v1h-1z M45,49h1v2h-1z M49,49h1v1h-1z M52,49h1v1h-1z M33,50h2v1h-2z M37,50h1v3h-1z M40,50h1v3h-1z M46,50h2v1h-2z M50,50h1v1h-1z M35,51h2v1h-2z M39,51h1v2h-1z M43,51h1v2h-1z M46,51h1v1h-1z M48,51h1v1h-1z M52,51h1v1h-1z M21,52h5v1h-5z M28,52h1v1h-1z M33,52h1v1h-1z M35,52h1v1h-1z M41,52h2v1h-2z M50,52h1v1h-1z" fill="#000000"/>
</svg>
